<svg xmlns="http://www.w3.org/2000/svg" xmlns:xlink="http://www.w3.org/1999/xlink" width="100%" height="100%" version="1.1" viewBox="0 0 1200 438" xml:space="preserve" style="fill-rule:evenodd;clip-rule:evenodd;stroke-linejoin:round;stroke-miterlimit:1.41421"><g><path d="M126.558,173.819L140.286,159.515C142.494,157.211 142.398,153.659 140.19,151.547C137.886,149.339 134.334,149.435 132.222,151.643L118.686,165.659L105.438,151.835C103.23,149.627 99.678,149.531 97.47,151.739C95.166,153.851 95.166,157.403 97.278,159.707L110.91,173.819L97.374,187.835C95.166,190.043 95.262,193.595 97.47,195.803C98.622,196.859 100.062,197.339 101.406,197.339C102.942,197.339 104.382,196.763 105.438,195.611L118.686,181.883L132.126,195.803C133.278,196.955 134.718,197.531 136.158,197.531C137.598,197.531 139.038,197.051 140.094,195.995C142.302,193.787 142.398,190.235 140.286,188.027L126.558,173.819Z" transform="matrix(4.74967,0,0,4.59611,-450.315,-589.137)" style="fill:#323232;fill-rule:nonzero"/><path d="M156.126,141.467C152.766,141.467 150.078,138.779 150.078,135.611L150.078,135.131C150.078,131.771 152.766,129.179 156.126,129.179C159.294,129.179 161.982,131.771 161.982,135.131L161.982,135.611C161.982,138.779 159.294,141.467 156.126,141.467ZM156.126,197.819C152.766,197.819 150.078,195.131 150.078,191.867L150.078,154.811C150.078,151.547 152.766,148.955 156.126,148.955C159.294,148.955 161.982,151.547 161.982,154.811L161.982,191.867C161.982,195.131 159.294,197.819 156.126,197.819Z" transform="matrix(4.74967,0,0,4.59611,-450.315,-589.137)" style="fill:#323232;fill-rule:nonzero"/><path d="M192.414,197.627L192.318,197.627C190.206,197.627 188.286,196.379 187.326,194.459L169.278,158.459C167.934,155.579 168.99,152.219 171.87,150.779C174.654,149.435 178.014,150.491 179.454,153.371L192.414,179.291L205.374,154.043C206.814,151.259 210.174,150.107 212.958,151.547C215.742,152.987 216.894,156.347 215.454,159.131L197.406,194.459C196.446,196.379 194.526,197.627 192.414,197.627Z" transform="matrix(4.74967,0,0,4.59611,-450.315,-589.137)" style="fill:#323232;fill-rule:nonzero"/><path d="M262.878,149.819C259.71,149.819 257.79,152.315 257.79,155.291L257.79,155.771C253.662,152.411 248.862,150.203 243.102,150.203C230.238,150.203 219.87,160.667 219.87,173.435C219.87,186.203 230.238,196.571 243.102,196.571C248.862,196.571 253.662,194.459 257.79,190.907L257.79,192.059C257.79,195.035 259.71,197.531 262.878,197.531C266.046,197.531 268.446,195.035 268.446,192.059L268.446,155.291C268.446,152.315 266.046,149.819 262.878,149.819ZM243.102,185.339C236.478,185.339 231.006,180.059 231.006,173.435C231.006,166.811 236.478,161.435 243.102,161.435C249.63,161.435 255.102,166.811 255.102,173.435C255.102,180.059 249.63,185.339 243.102,185.339Z" transform="matrix(4.74967,0,0,4.59611,-450.315,-589.137)" style="fill:#323232;fill-rule:nonzero"/><path d="M303.102,149.627C298.014,149.627 293.214,151.163 289.374,153.851C288.606,151.547 286.398,149.819 283.806,149.819C280.542,149.819 277.95,152.411 277.95,155.579L277.95,216.635C277.95,219.899 280.542,222.491 283.806,222.491C286.974,222.491 289.566,219.899 289.566,216.635L289.566,194.171C293.502,196.667 298.11,198.203 303.102,198.203C316.446,198.203 327.39,187.355 327.39,173.915C327.39,160.475 316.446,149.627 303.102,149.627ZM303.102,186.587C296.094,186.587 290.43,180.923 290.43,173.915C290.43,166.907 296.094,161.243 303.102,161.243C310.014,161.243 315.774,166.907 315.774,173.915C315.774,180.923 310.014,186.587 303.102,186.587Z" transform="matrix(4.74967,0,0,4.59611,-450.315,-589.137)" style="fill:#323232;fill-rule:nonzero"/><path d="M340.638,141.467C337.278,141.467 334.59,138.779 334.59,135.611L334.59,135.131C334.59,131.771 337.278,129.179 340.638,129.179C343.806,129.179 346.494,131.771 346.494,135.131L346.494,135.611C346.494,138.779 343.806,141.467 340.638,141.467ZM340.638,197.819C337.278,197.819 334.59,195.131 334.59,191.867L334.59,154.811C334.59,151.547 337.278,148.955 340.638,148.955C343.806,148.955 346.494,151.547 346.494,154.811L346.494,191.867C346.494,195.131 343.806,197.819 340.638,197.819Z" transform="matrix(4.74967,0,0,4.59611,-450.315,-589.137)" style="fill:#323232;fill-rule:nonzero"/></g></svg>