<svg xmlns="http://www.w3.org/2000/svg" xmlns:xlink="http://www.w3.org/1999/xlink" width="200" height="200" class="lds-spinner" preserveAspectRatio="xMidYMid" viewBox="0 0 100 100" style="background:0 0"><g transform="rotate(0 50 50)"><rect width="8" height="3" x="46" y="28.5" fill="#9b1fa9" rx="0" ry="0"><animate attributeName="opacity" begin="-0.588s" dur="0.6s" keyTimes="0;1" repeatCount="indefinite" values="1;0"/></rect></g><g transform="rotate(7.2 50 50)"><rect width="8" height="3" x="46" y="28.5" fill="#9b1fa9" rx="0" ry="0"><animate attributeName="opacity" begin="-0.576s" dur="0.6s" keyTimes="0;1" repeatCount="indefinite" values="1;0"/></rect></g><g transform="rotate(14.4 50 50)"><rect width="8" height="3" x="46" y="28.5" fill="#9b1fa9" rx="0" ry="0"><animate attributeName="opacity" begin="-0.564s" dur="0.6s" keyTimes="0;1" repeatCount="indefinite" values="1;0"/></rect></g><g transform="rotate(21.6 50 50)"><rect width="8" height="3" x="46" y="28.5" fill="#9b1fa9" rx="0" ry="0"><animate attributeName="opacity" begin="-0.5519999999999999s" dur="0.6s" keyTimes="0;1" repeatCount="indefinite" values="1;0"/></rect></g><g transform="rotate(28.8 50 50)"><rect width="8" height="3" x="46" y="28.5" fill="#9b1fa9" rx="0" ry="0"><animate attributeName="opacity" begin="-0.54s" dur="0.6s" keyTimes="0;1" repeatCount="indefinite" values="1;0"/></rect></g><g transform="rotate(36 50 50)"><rect width="8" height="3" x="46" y="28.5" fill="#9b1fa9" rx="0" ry="0"><animate attributeName="opacity" begin="-0.528s" dur="0.6s" keyTimes="0;1" repeatCount="indefinite" values="1;0"/></rect></g><g transform="rotate(43.2 50 50)"><rect width="8" height="3" x="46" y="28.5" fill="#9b1fa9" rx="0" ry="0"><animate attributeName="opacity" begin="-0.516s" dur="0.6s" keyTimes="0;1" repeatCount="indefinite" values="1;0"/></rect></g><g transform="rotate(50.4 50 50)"><rect width="8" height="3" x="46" y="28.5" fill="#9b1fa9" rx="0" ry="0"><animate attributeName="opacity" begin="-0.504s" dur="0.6s" keyTimes="0;1" repeatCount="indefinite" values="1;0"/></rect></g><g transform="rotate(57.6 50 50)"><rect width="8" height="3" x="46" y="28.5" fill="#9b1fa9" rx="0" ry="0"><animate attributeName="opacity" begin="-0.49199999999999994s" dur="0.6s" keyTimes="0;1" repeatCount="indefinite" values="1;0"/></rect></g><g transform="rotate(64.8 50 50)"><rect width="8" height="3" x="46" y="28.5" fill="#9b1fa9" rx="0" ry="0"><animate attributeName="opacity" begin="-0.48s" dur="0.6s" keyTimes="0;1" repeatCount="indefinite" values="1;0"/></rect></g><g transform="rotate(72 50 50)"><rect width="8" height="3" x="46" y="28.5" fill="#9b1fa9" rx="0" ry="0"><animate attributeName="opacity" begin="-0.46799999999999997s" dur="0.6s" keyTimes="0;1" repeatCount="indefinite" values="1;0"/></rect></g><g transform="rotate(79.2 50 50)"><rect width="8" height="3" x="46" y="28.5" fill="#9b1fa9" rx="0" ry="0"><animate attributeName="opacity" begin="-0.456s" dur="0.6s" keyTimes="0;1" repeatCount="indefinite" values="1;0"/></rect></g><g transform="rotate(86.4 50 50)"><rect width="8" height="3" x="46" y="28.5" fill="#9b1fa9" rx="0" ry="0"><animate attributeName="opacity" begin="-0.444s" dur="0.6s" keyTimes="0;1" repeatCount="indefinite" values="1;0"/></rect></g><g transform="rotate(93.6 50 50)"><rect width="8" height="3" x="46" y="28.5" fill="#9b1fa9" rx="0" ry="0"><animate attributeName="opacity" begin="-0.43199999999999994s" dur="0.6s" keyTimes="0;1" repeatCount="indefinite" values="1;0"/></rect></g><g transform="rotate(100.8 50 50)"><rect width="8" height="3" x="46" y="28.5" fill="#9b1fa9" rx="0" ry="0"><animate attributeName="opacity" begin="-0.42s" dur="0.6s" keyTimes="0;1" repeatCount="indefinite" values="1;0"/></rect></g><g transform="rotate(108 50 50)"><rect width="8" height="3" x="46" y="28.5" fill="#9b1fa9" rx="0" ry="0"><animate attributeName="opacity" begin="-0.408s" dur="0.6s" keyTimes="0;1" repeatCount="indefinite" values="1;0"/></rect></g><g transform="rotate(115.2 50 50)"><rect width="8" height="3" x="46" y="28.5" fill="#9b1fa9" rx="0" ry="0"><animate attributeName="opacity" begin="-0.396s" dur="0.6s" keyTimes="0;1" repeatCount="indefinite" values="1;0"/></rect></g><g transform="rotate(122.4 50 50)"><rect width="8" height="3" x="46" y="28.5" fill="#9b1fa9" rx="0" ry="0"><animate attributeName="opacity" begin="-0.384s" dur="0.6s" keyTimes="0;1" repeatCount="indefinite" values="1;0"/></rect></g><g transform="rotate(129.6 50 50)"><rect width="8" height="3" x="46" y="28.5" fill="#9b1fa9" rx="0" ry="0"><animate attributeName="opacity" begin="-0.37199999999999994s" dur="0.6s" keyTimes="0;1" repeatCount="indefinite" values="1;0"/></rect></g><g transform="rotate(136.8 50 50)"><rect width="8" height="3" x="46" y="28.5" fill="#9b1fa9" rx="0" ry="0"><animate attributeName="opacity" begin="-0.36s" dur="0.6s" keyTimes="0;1" repeatCount="indefinite" values="1;0"/></rect></g><g transform="rotate(144 50 50)"><rect width="8" height="3" x="46" y="28.5" fill="#9b1fa9" rx="0" ry="0"><animate attributeName="opacity" begin="-0.348s" dur="0.6s" keyTimes="0;1" repeatCount="indefinite" values="1;0"/></rect></g><g transform="rotate(151.2 50 50)"><rect width="8" height="3" x="46" y="28.5" fill="#9b1fa9" rx="0" ry="0"><animate attributeName="opacity" begin="-0.336s" dur="0.6s" keyTimes="0;1" repeatCount="indefinite" values="1;0"/></rect></g><g transform="rotate(158.4 50 50)"><rect width="8" height="3" x="46" y="28.5" fill="#9b1fa9" rx="0" ry="0"><animate attributeName="opacity" begin="-0.324s" dur="0.6s" keyTimes="0;1" repeatCount="indefinite" values="1;0"/></rect></g><g transform="rotate(165.6 50 50)"><rect width="8" height="3" x="46" y="28.5" fill="#9b1fa9" rx="0" ry="0"><animate attributeName="opacity" begin="-0.312s" dur="0.6s" keyTimes="0;1" repeatCount="indefinite" values="1;0"/></rect></g><g transform="rotate(172.8 50 50)"><rect width="8" height="3" x="46" y="28.5" fill="#9b1fa9" rx="0" ry="0"><animate attributeName="opacity" begin="-0.3s" dur="0.6s" keyTimes="0;1" repeatCount="indefinite" values="1;0"/></rect></g><g transform="rotate(180 50 50)"><rect width="8" height="3" x="46" y="28.5" fill="#9b1fa9" rx="0" ry="0"><animate attributeName="opacity" begin="-0.288s" dur="0.6s" keyTimes="0;1" repeatCount="indefinite" values="1;0"/></rect></g><g transform="rotate(187.2 50 50)"><rect width="8" height="3" x="46" y="28.5" fill="#9b1fa9" rx="0" ry="0"><animate attributeName="opacity" begin="-0.27599999999999997s" dur="0.6s" keyTimes="0;1" repeatCount="indefinite" values="1;0"/></rect></g><g transform="rotate(194.4 50 50)"><rect width="8" height="3" x="46" y="28.5" fill="#9b1fa9" rx="0" ry="0"><animate attributeName="opacity" begin="-0.264s" dur="0.6s" keyTimes="0;1" repeatCount="indefinite" values="1;0"/></rect></g><g transform="rotate(201.6 50 50)"><rect width="8" height="3" x="46" y="28.5" fill="#9b1fa9" rx="0" ry="0"><animate attributeName="opacity" begin="-0.252s" dur="0.6s" keyTimes="0;1" repeatCount="indefinite" values="1;0"/></rect></g><g transform="rotate(208.8 50 50)"><rect width="8" height="3" x="46" y="28.5" fill="#9b1fa9" rx="0" ry="0"><animate attributeName="opacity" begin="-0.24s" dur="0.6s" keyTimes="0;1" repeatCount="indefinite" values="1;0"/></rect></g><g transform="rotate(216 50 50)"><rect width="8" height="3" x="46" y="28.5" fill="#9b1fa9" rx="0" ry="0"><animate attributeName="opacity" begin="-0.228s" dur="0.6s" keyTimes="0;1" repeatCount="indefinite" values="1;0"/></rect></g><g transform="rotate(223.2 50 50)"><rect width="8" height="3" x="46" y="28.5" fill="#9b1fa9" rx="0" ry="0"><animate attributeName="opacity" begin="-0.21599999999999997s" dur="0.6s" keyTimes="0;1" repeatCount="indefinite" values="1;0"/></rect></g><g transform="rotate(230.4 50 50)"><rect width="8" height="3" x="46" y="28.5" fill="#9b1fa9" rx="0" ry="0"><animate attributeName="opacity" begin="-0.204s" dur="0.6s" keyTimes="0;1" repeatCount="indefinite" values="1;0"/></rect></g><g transform="rotate(237.6 50 50)"><rect width="8" height="3" x="46" y="28.5" fill="#9b1fa9" rx="0" ry="0"><animate attributeName="opacity" begin="-0.192s" dur="0.6s" keyTimes="0;1" repeatCount="indefinite" values="1;0"/></rect></g><g transform="rotate(244.8 50 50)"><rect width="8" height="3" x="46" y="28.5" fill="#9b1fa9" rx="0" ry="0"><animate attributeName="opacity" begin="-0.18s" dur="0.6s" keyTimes="0;1" repeatCount="indefinite" values="1;0"/></rect></g><g transform="rotate(252 50 50)"><rect width="8" height="3" x="46" y="28.5" fill="#9b1fa9" rx="0" ry="0"><animate attributeName="opacity" begin="-0.168s" dur="0.6s" keyTimes="0;1" repeatCount="indefinite" values="1;0"/></rect></g><g transform="rotate(259.2 50 50)"><rect width="8" height="3" x="46" y="28.5" fill="#9b1fa9" rx="0" ry="0"><animate attributeName="opacity" begin="-0.156s" dur="0.6s" keyTimes="0;1" repeatCount="indefinite" values="1;0"/></rect></g><g transform="rotate(266.4 50 50)"><rect width="8" height="3" x="46" y="28.5" fill="#9b1fa9" rx="0" ry="0"><animate attributeName="opacity" begin="-0.144s" dur="0.6s" keyTimes="0;1" repeatCount="indefinite" values="1;0"/></rect></g><g transform="rotate(273.6 50 50)"><rect width="8" height="3" x="46" y="28.5" fill="#9b1fa9" rx="0" ry="0"><animate attributeName="opacity" begin="-0.132s" dur="0.6s" keyTimes="0;1" repeatCount="indefinite" values="1;0"/></rect></g><g transform="rotate(280.8 50 50)"><rect width="8" height="3" x="46" y="28.5" fill="#9b1fa9" rx="0" ry="0"><animate attributeName="opacity" begin="-0.12s" dur="0.6s" keyTimes="0;1" repeatCount="indefinite" values="1;0"/></rect></g><g transform="rotate(288 50 50)"><rect width="8" height="3" x="46" y="28.5" fill="#9b1fa9" rx="0" ry="0"><animate attributeName="opacity" begin="-0.10799999999999998s" dur="0.6s" keyTimes="0;1" repeatCount="indefinite" values="1;0"/></rect></g><g transform="rotate(295.2 50 50)"><rect width="8" height="3" x="46" y="28.5" fill="#9b1fa9" rx="0" ry="0"><animate attributeName="opacity" begin="-0.096s" dur="0.6s" keyTimes="0;1" repeatCount="indefinite" values="1;0"/></rect></g><g transform="rotate(302.4 50 50)"><rect width="8" height="3" x="46" y="28.5" fill="#9b1fa9" rx="0" ry="0"><animate attributeName="opacity" begin="-0.084s" dur="0.6s" keyTimes="0;1" repeatCount="indefinite" values="1;0"/></rect></g><g transform="rotate(309.6 50 50)"><rect width="8" height="3" x="46" y="28.5" fill="#9b1fa9" rx="0" ry="0"><animate attributeName="opacity" begin="-0.072s" dur="0.6s" keyTimes="0;1" repeatCount="indefinite" values="1;0"/></rect></g><g transform="rotate(316.8 50 50)"><rect width="8" height="3" x="46" y="28.5" fill="#9b1fa9" rx="0" ry="0"><animate attributeName="opacity" begin="-0.06s" dur="0.6s" keyTimes="0;1" repeatCount="indefinite" values="1;0"/></rect></g><g transform="rotate(324 50 50)"><rect width="8" height="3" x="46" y="28.5" fill="#9b1fa9" rx="0" ry="0"><animate attributeName="opacity" begin="-0.048s" dur="0.6s" keyTimes="0;1" repeatCount="indefinite" values="1;0"/></rect></g><g transform="rotate(331.2 50 50)"><rect width="8" height="3" x="46" y="28.5" fill="#9b1fa9" rx="0" ry="0"><animate attributeName="opacity" begin="-0.036s" dur="0.6s" keyTimes="0;1" repeatCount="indefinite" values="1;0"/></rect></g><g transform="rotate(338.4 50 50)"><rect width="8" height="3" x="46" y="28.5" fill="#9b1fa9" rx="0" ry="0"><animate attributeName="opacity" begin="-0.024s" dur="0.6s" keyTimes="0;1" repeatCount="indefinite" values="1;0"/></rect></g><g transform="rotate(345.6 50 50)"><rect width="8" height="3" x="46" y="28.5" fill="#9b1fa9" rx="0" ry="0"><animate attributeName="opacity" begin="-0.012s" dur="0.6s" keyTimes="0;1" repeatCount="indefinite" values="1;0"/></rect></g><g transform="rotate(352.8 50 50)"><rect width="8" height="3" x="46" y="28.5" fill="#9b1fa9" rx="0" ry="0"><animate attributeName="opacity" begin="0s" dur="0.6s" keyTimes="0;1" repeatCount="indefinite" values="1;0"/></rect></g></svg>