<?xml version="1.0" encoding="UTF-8" standalone="no"?>
<!DOCTYPE svg PUBLIC "-//W3C//DTD SVG 1.1//EN" "http://www.w3.org/Graphics/SVG/1.1/DTD/svg11.dtd">
<svg width="100%" height="100%" viewBox="0 0 1196 259" version="1.1" xmlns="http://www.w3.org/2000/svg" xmlns:xlink="http://www.w3.org/1999/xlink" xml:space="preserve" xmlns:serif="http://www.serif.com/" style="fill-rule:evenodd;clip-rule:evenodd;stroke-linejoin:round;stroke-miterlimit:1.41421;">
    <g transform="matrix(1,0,0,1,-26.7732,-313.369)">
        <g transform="matrix(3.33829,0,0,3.23036,-292.062,-133.736)">
            <path d="M147.885,173.663C147.885,165.533 140.927,158.888 132.563,158.888C128.263,158.888 124.511,160.452 121.775,163.11C118.882,160.452 115.13,158.888 110.987,158.888C108.407,158.888 105.984,159.514 103.795,160.608C103.091,159.514 101.684,158.732 100.199,158.732C97.697,158.732 95.509,160.921 95.509,163.501L95.509,193.363C95.509,195.864 97.697,197.975 100.199,197.975C102.857,197.975 104.889,195.864 104.889,193.363L104.889,173.663C104.889,170.614 107.625,168.269 110.987,168.269C114.348,168.269 117.084,170.614 117.084,173.663L117.084,193.128C117.084,195.786 119.117,197.819 121.775,197.819C124.276,197.819 126.387,195.786 126.387,193.128L126.387,174.21C126.387,174.132 126.387,174.054 126.387,173.898L126.387,173.663C126.387,170.614 129.123,168.269 132.563,168.269C135.768,168.269 138.504,170.614 138.504,173.663L138.504,193.128C138.504,195.786 140.693,197.819 143.273,197.819C145.852,197.819 147.885,195.786 147.885,193.128L147.885,174.21C147.885,174.132 147.885,174.054 147.885,173.898L147.885,173.663Z" style="fill:rgb(255,232,110);fill-rule:nonzero;"/>
            <path d="M173.369,197.662C162.581,197.662 153.748,188.907 153.748,178.041C153.748,167.253 162.581,158.419 173.369,158.419C184.157,158.419 192.991,167.253 193.069,178.119C192.991,188.907 184.157,197.662 173.369,197.662ZM173.369,168.035C167.819,168.035 163.363,172.491 163.363,178.041C163.363,183.591 167.819,188.047 173.369,188.047C178.92,188.047 183.375,183.591 183.375,178.041C183.375,172.491 178.92,168.035 173.369,168.035Z" style="fill:rgb(255,232,110);fill-rule:nonzero;"/>
            <path d="M232.468,158.185C230.358,158.185 228.638,159.592 227.934,161.468C224.964,159.592 221.446,158.576 217.772,158.576C206.984,158.576 198.15,167.331 198.15,178.119C198.15,188.907 206.984,197.662 217.772,197.662C221.368,197.662 224.807,196.646 227.7,194.926L227.7,198.366C227.7,204.229 223.009,208.919 217.146,208.919C214.097,208.919 211.127,207.669 209.173,205.323C207.453,203.291 204.404,203.056 202.45,204.854C200.417,206.496 200.261,209.545 201.902,211.577C205.733,216.033 211.283,218.535 217.146,218.535C228.247,218.535 237.237,209.467 237.237,198.366L237.237,162.953C237.237,160.374 235.126,158.185 232.468,158.185ZM217.772,188.125C212.221,188.125 207.765,183.591 207.765,178.119C207.765,172.569 212.221,168.113 217.772,168.113C223.244,168.113 227.7,172.569 227.7,178.119C227.7,183.591 223.244,188.125 217.772,188.125Z" style="fill:rgb(255,232,110);fill-rule:nonzero;"/>
            <path d="M264.91,158.185C260.845,158.185 257.093,159.436 253.888,161.468L253.888,143.176C253.888,140.596 251.777,138.407 249.197,138.407C246.539,138.407 244.429,140.596 244.429,143.176L244.429,192.894C244.429,195.474 246.539,197.584 249.197,197.584C251.308,197.584 253.106,196.177 253.731,194.301C256.858,196.49 260.767,197.741 264.91,197.741C275.776,197.741 284.688,188.907 284.688,177.963C284.688,167.019 275.776,158.185 264.91,158.185ZM264.91,188.282C259.203,188.282 254.591,183.669 254.591,177.963C254.591,172.256 259.203,167.644 264.91,167.644C270.539,167.644 275.229,172.256 275.229,177.963C275.229,183.669 270.539,188.282 264.91,188.282Z" style="fill:white;fill-rule:nonzero;"/>
            <path d="M308.609,197.662C297.821,197.662 288.987,188.907 288.987,178.041C288.987,167.253 297.821,158.419 308.609,158.419C319.397,158.419 328.23,167.253 328.309,178.119C328.23,188.907 319.397,197.662 308.609,197.662ZM308.609,168.035C303.059,168.035 298.603,172.491 298.603,178.041C298.603,183.591 303.059,188.047 308.609,188.047C314.159,188.047 318.615,183.591 318.615,178.041C318.615,172.491 314.159,168.035 308.609,168.035Z" style="fill:white;fill-rule:nonzero;"/>
            <path d="M367.239,158.732C364.659,158.732 363.096,160.765 363.096,163.188L363.096,163.579C359.734,160.843 355.826,159.045 351.135,159.045C340.66,159.045 332.217,167.566 332.217,177.963C332.217,188.36 340.66,196.803 351.135,196.803C355.826,196.803 359.734,195.083 363.096,192.19L363.096,193.128C363.096,195.552 364.659,197.584 367.239,197.584C369.819,197.584 371.773,195.552 371.773,193.128L371.773,163.188C371.773,160.765 369.819,158.732 367.239,158.732ZM351.135,187.656C345.741,187.656 341.285,183.357 341.285,177.963C341.285,172.569 345.741,168.191 351.135,168.191C356.451,168.191 360.907,172.569 360.907,177.963C360.907,183.357 356.451,187.656 351.135,187.656Z" style="fill:white;fill-rule:nonzero;"/>
            <path d="M411.094,164.048C407.576,160.765 403.042,158.888 398.195,158.888C394.599,158.888 391.16,159.983 388.267,161.781C387.642,159.905 385.922,158.576 383.812,158.576C381.232,158.576 379.121,160.608 379.121,163.188L379.121,193.128C379.121,195.708 381.232,197.819 383.812,197.819C386.391,197.819 388.502,195.708 388.502,193.128L388.502,178.354C388.502,172.803 392.88,168.269 398.195,168.269C400.619,168.269 402.964,169.207 404.684,170.849C406.638,172.647 409.531,172.491 411.329,170.614C413.127,168.738 412.97,165.768 411.094,164.048Z" style="fill:white;fill-rule:nonzero;"/>
            <path d="M448.852,138.485C446.272,138.485 444.161,140.674 444.161,143.254L444.161,161.546C440.956,159.514 437.204,158.263 433.139,158.263C422.273,158.263 413.361,167.175 413.361,178.041C413.361,188.985 422.273,197.819 433.139,197.819C437.282,197.819 441.191,196.568 444.318,194.379C444.943,196.333 446.741,197.662 448.852,197.662C451.51,197.662 453.62,195.552 453.62,192.972L453.62,143.254C453.62,140.674 451.51,138.485 448.852,138.485ZM433.139,188.36C427.432,188.36 422.82,183.748 422.82,178.041C422.82,172.334 427.432,167.722 433.139,167.722C438.846,167.722 443.458,172.334 443.458,178.041C443.458,183.748 438.846,188.36 433.139,188.36Z" style="fill:white;fill-rule:nonzero;"/>
        </g>
    </g>
</svg>
