<?xml version="1.0" encoding="UTF-8" standalone="no"?>
<!DOCTYPE svg PUBLIC "-//W3C//DTD SVG 1.1//EN" "http://www.w3.org/Graphics/SVG/1.1/DTD/svg11.dtd">
<svg width="100%" height="100%" viewBox="0 0 1192 259" version="1.1" xmlns="http://www.w3.org/2000/svg" xmlns:xlink="http://www.w3.org/1999/xlink" xml:space="preserve" xmlns:serif="http://www.serif.com/" style="fill-rule:evenodd;clip-rule:evenodd;stroke-linejoin:round;stroke-miterlimit:1.41421;">
    <g transform="matrix(1,0,0,1,-23.7057,-10.5566)">
        <g transform="matrix(2.70999,0,0,2.62238,-237.054,-316.871)">
            <path d="M160.542,168.155C160.542,158.171 151.998,150.011 141.726,150.011C136.446,150.011 131.838,151.931 128.478,155.195C124.926,151.931 120.318,150.011 115.23,150.011C112.062,150.011 109.086,150.779 106.398,152.123C105.534,150.779 103.806,149.819 101.982,149.819C98.91,149.819 96.222,152.507 96.222,155.675L96.222,192.347C96.222,195.419 98.91,198.011 101.982,198.011C105.246,198.011 107.742,195.419 107.742,192.347L107.742,168.155C107.742,164.411 111.102,161.531 115.23,161.531C119.358,161.531 122.718,164.411 122.718,168.155L122.718,192.059C122.718,195.323 125.214,197.819 128.478,197.819C131.55,197.819 134.142,195.323 134.142,192.059L134.142,168.827C134.142,168.731 134.142,168.635 134.142,168.443L134.142,168.155C134.142,164.411 137.502,161.531 141.726,161.531C145.662,161.531 149.022,164.411 149.022,168.155L149.022,192.059C149.022,195.323 151.71,197.819 154.878,197.819C158.046,197.819 160.542,195.323 160.542,192.059L160.542,168.827C160.542,168.731 160.542,168.635 160.542,168.443L160.542,168.155Z" style="fill:rgb(238,185,0);fill-rule:nonzero;"/>
            <path d="M191.838,197.627C178.59,197.627 167.742,186.875 167.742,173.531C167.742,160.283 178.59,149.435 191.838,149.435C205.086,149.435 215.934,160.283 216.03,173.627C215.934,186.875 205.086,197.627 191.838,197.627ZM191.838,161.243C185.022,161.243 179.55,166.715 179.55,173.531C179.55,180.347 185.022,185.819 191.838,185.819C198.654,185.819 204.126,180.347 204.126,173.531C204.126,166.715 198.654,161.243 191.838,161.243Z" style="fill:rgb(238,185,0);fill-rule:nonzero;"/>
            <path d="M264.414,149.147C261.822,149.147 259.71,150.875 258.846,153.179C255.198,150.875 250.878,149.627 246.366,149.627C233.118,149.627 222.27,160.379 222.27,173.627C222.27,186.875 233.118,197.627 246.366,197.627C250.782,197.627 255.006,196.379 258.558,194.267L258.558,198.491C258.558,205.691 252.798,211.451 245.598,211.451C241.854,211.451 238.206,209.915 235.806,207.035C233.694,204.539 229.95,204.251 227.55,206.459C225.054,208.475 224.862,212.219 226.878,214.715C231.582,220.187 238.398,223.259 245.598,223.259C259.23,223.259 270.27,212.123 270.27,198.491L270.27,155.003C270.27,151.835 267.678,149.147 264.414,149.147ZM246.366,185.915C239.55,185.915 234.078,180.347 234.078,173.627C234.078,166.811 239.55,161.339 246.366,161.339C253.086,161.339 258.558,166.811 258.558,173.627C258.558,180.347 253.086,185.915 246.366,185.915Z" style="fill:rgb(238,185,0);fill-rule:nonzero;"/>
            <path d="M304.254,149.147C299.262,149.147 294.654,150.683 290.718,153.179L290.718,130.715C290.718,127.547 288.126,124.859 284.958,124.859C281.694,124.859 279.102,127.547 279.102,130.715L279.102,191.771C279.102,194.939 281.694,197.531 284.958,197.531C287.55,197.531 289.758,195.803 290.526,193.499C294.366,196.187 299.166,197.723 304.254,197.723C317.598,197.723 328.542,186.875 328.542,173.435C328.542,159.995 317.598,149.147 304.254,149.147ZM304.254,186.107C297.246,186.107 291.582,180.443 291.582,173.435C291.582,166.427 297.246,160.763 304.254,160.763C311.166,160.763 316.926,166.427 316.926,173.435C316.926,180.443 311.166,186.107 304.254,186.107Z" style="fill:rgb(50,50,50);fill-rule:nonzero;"/>
            <path d="M357.918,197.627C344.67,197.627 333.822,186.875 333.822,173.531C333.822,160.283 344.67,149.435 357.918,149.435C371.166,149.435 382.014,160.283 382.11,173.627C382.014,186.875 371.166,197.627 357.918,197.627ZM357.918,161.243C351.102,161.243 345.63,166.715 345.63,173.531C345.63,180.347 351.102,185.819 357.918,185.819C364.734,185.819 370.206,180.347 370.206,173.531C370.206,166.715 364.734,161.243 357.918,161.243Z" style="fill:rgb(50,50,50);fill-rule:nonzero;"/>
            <path d="M429.918,149.819C426.75,149.819 424.83,152.315 424.83,155.291L424.83,155.771C420.702,152.411 415.902,150.203 410.142,150.203C397.278,150.203 386.91,160.667 386.91,173.435C386.91,186.203 397.278,196.571 410.142,196.571C415.902,196.571 420.702,194.459 424.83,190.907L424.83,192.059C424.83,195.035 426.75,197.531 429.918,197.531C433.086,197.531 435.486,195.035 435.486,192.059L435.486,155.291C435.486,152.315 433.086,149.819 429.918,149.819ZM410.142,185.339C403.518,185.339 398.046,180.059 398.046,173.435C398.046,166.811 403.518,161.435 410.142,161.435C416.67,161.435 422.142,166.811 422.142,173.435C422.142,180.059 416.67,185.339 410.142,185.339Z" style="fill:rgb(50,50,50);fill-rule:nonzero;"/>
            <path d="M483.774,156.347C479.454,152.315 473.886,150.011 467.934,150.011C463.518,150.011 459.294,151.355 455.742,153.563C454.974,151.259 452.862,149.627 450.27,149.627C447.102,149.627 444.51,152.123 444.51,155.291L444.51,192.059C444.51,195.227 447.102,197.819 450.27,197.819C453.438,197.819 456.03,195.227 456.03,192.059L456.03,173.915C456.03,167.099 461.406,161.531 467.934,161.531C470.91,161.531 473.79,162.683 475.902,164.699C478.302,166.907 481.854,166.715 484.062,164.411C486.27,162.107 486.078,158.459 483.774,156.347Z" style="fill:rgb(50,50,50);fill-rule:nonzero;"/>
            <path d="M530.142,124.955C526.974,124.955 524.382,127.643 524.382,130.811L524.382,153.275C520.446,150.779 515.838,149.243 510.846,149.243C497.502,149.243 486.558,160.187 486.558,173.531C486.558,186.971 497.502,197.819 510.846,197.819C515.934,197.819 520.734,196.283 524.574,193.595C525.342,195.995 527.55,197.627 530.142,197.627C533.406,197.627 535.998,195.035 535.998,191.867L535.998,130.811C535.998,127.643 533.406,124.955 530.142,124.955ZM510.846,186.203C503.838,186.203 498.174,180.539 498.174,173.531C498.174,166.523 503.838,160.859 510.846,160.859C517.854,160.859 523.518,166.523 523.518,173.531C523.518,180.539 517.854,186.203 510.846,186.203Z" style="fill:rgb(50,50,50);fill-rule:nonzero;"/>
        </g>
    </g>
</svg>
